<svg width="261" height="81" viewBox="0 0 261 81" fill="none" xmlns="http://www.w3.org/2000/svg">
<path fill-rule="evenodd" clip-rule="evenodd" d="M40.6616 1.2116C62.2692 1.2116 79.7856 18.7282 79.7856 40.336C79.7856 61.9432 62.2692 79.4597 40.6616 79.4597C19.0541 79.4597 1.53754 61.9432 1.53754 40.336C1.53754 18.7282 19.0541 1.2116 40.6616 1.2116Z" fill="white"/>
<path fill-rule="evenodd" clip-rule="evenodd" d="M40.6616 1.2116C62.2692 1.2116 79.7856 18.7282 79.7856 40.336C79.7856 61.9432 62.2692 79.4597 40.6616 79.4597C19.0541 79.4597 1.53754 61.9432 1.53754 40.336C1.53754 18.7282 19.0541 1.2116 40.6616 1.2116Z" fill="#E1E1E1"/>
<path fill-rule="evenodd" clip-rule="evenodd" d="M130.662 1.2116C152.269 1.2116 169.786 18.7282 169.786 40.336C169.786 61.9432 152.269 79.4597 130.662 79.4597C109.054 79.4597 91.5375 61.9432 91.5375 40.336C91.5375 18.7282 109.054 1.2116 130.662 1.2116Z" fill="white"/>
<path fill-rule="evenodd" clip-rule="evenodd" d="M130.662 1.2116C152.269 1.2116 169.786 18.7282 169.786 40.336C169.786 61.9432 152.269 79.4597 130.662 79.4597C109.054 79.4597 91.5375 61.9432 91.5375 40.336C91.5375 18.7282 109.054 1.2116 130.662 1.2116Z" fill="#E1E1E1"/>
<path d="M137 35V31H133C130.791 31 129 32.7909 129 35V39H125V43H129V53H133V43H137V39H133V35H137Z" fill="white"/>
<path fill-rule="evenodd" clip-rule="evenodd" d="M220.662 1.2116C242.269 1.2116 259.786 18.7282 259.786 40.336C259.786 61.9432 242.269 79.4597 220.662 79.4597C199.054 79.4597 181.538 61.9432 181.538 40.336C181.538 18.7282 199.054 1.2116 220.662 1.2116Z" fill="white"/>
<path fill-rule="evenodd" clip-rule="evenodd" d="M220.662 1.2116C242.269 1.2116 259.786 18.7282 259.786 40.336C259.786 61.9432 242.269 79.4597 220.662 79.4597C199.054 79.4597 181.538 61.9432 181.538 40.336C181.538 18.7282 199.054 1.2116 220.662 1.2116Z" fill="#E1E1E1"/>
<path d="M43.138 44.51C44.094 44.201 45.318 46.55 46.621 47.449C47.599 48.13 48.348 47.983 48.348 47.983L51.821 47.933C51.821 47.933 53.636 47.821 52.778 46.379C52.707 46.259 52.275 45.31 50.193 43.357C48.016 41.314 48.311 41.645 50.932 38.113C52.529 35.96 53.168 34.645 52.968 34.085C52.776 33.546 51.603 33.686 51.603 33.686L47.69 33.713C47.309 33.714 46.986 33.832 46.839 34.228C46.836 34.232 46.218 35.894 45.394 37.307C43.653 40.296 42.958 40.455 42.67 40.268C42.009 39.835 42.176 38.531 42.176 37.604C42.176 34.707 42.608 33.499 41.33 33.187C40.903 33.083 40.591 33.015 39.502 33.005C38.11 32.984 36.928 33.005 36.258 33.334C35.813 33.557 35.472 34.046 35.679 34.074C35.939 34.109 36.522 34.234 36.834 34.66C37.235 35.212 37.223 36.449 37.223 36.449C37.223 36.449 37.452 39.86 36.683 40.283C36.155 40.573 35.433 39.981 33.88 37.267C33.087 35.879 32.488 34.345 32.488 34.345C32.488 34.345 32.372 34.06 32.162 33.904C31.912 33.719 31.562 33.66 31.562 33.66L27.848 33.684C27.848 33.684 27.29 33.7 27.085 33.946C26.903 34.164 27.07 34.614 27.07 34.614C27.07 34.614 29.979 41.495 33.273 44.961C36.293 48.143 39.725 47.932 39.725 47.932H41.28C41.28 47.932 41.749 47.878 41.989 47.62C42.213 47.38 42.203 46.929 42.203 46.929C42.203 46.929 42.172 44.82 43.138 44.51Z" fill="white"/>
<path fill-rule="evenodd" clip-rule="evenodd" d="M213 30H228C229.65 30 231 31.35 231 33V48C231 49.65 229.65 51 228 51H213C211.35 51 210 49.65 210 48V33C210 31.35 211.35 30 213 30ZM224 40.5C224 38.57 222.43 37 220.5 37C218.57 37 217 38.57 217 40.5C217 42.43 218.57 44 220.5 44C222.43 44 224 42.43 224 40.5ZM213 48V39H214.181C214.063 39.4913 214.002 39.9947 214 40.5C214 44.0899 216.91 47 220.5 47C224.09 47 227 44.0899 227 40.5C226.999 39.9946 226.938 39.4912 226.819 39H228V48H213ZM224 37H228V33H224V37Z" fill="white"/>
</svg>
